<?xml version="1.0" encoding="UTF-8" standalone="no"?>
<!DOCTYPE svg PUBLIC "-//W3C//DTD SVG 1.1//EN" "http://www.w3.org/Graphics/SVG/1.1/DTD/svg11.dtd">
<!-- 由 Microsoft Visio, SVG Export 生成 办公室.svg Page-1 -->
<svg xmlns="http://www.w3.org/2000/svg" xmlns:xlink="http://www.w3.org/1999/xlink" xmlns:ev="http://www.w3.org/2001/xml-events"
		xmlns:v="http://schemas.microsoft.com/visio/2003/SVGExtensions/" width="31.8526in" height="31.8752in"
		viewBox="0 0 2293.39 2295.01" xml:space="preserve" color-interpolation-filters="sRGB" class="st10">
	<v:documentProperties v:langID="2052" v:metric="true" v:viewMarkup="false">
		<v:userDefs>
			<v:ud v:nameU="msvSubprocessMaster" v:prompt="" v:val="VT4(Rectangle)"/>
			<v:ud v:nameU="msvNoAutoConnect" v:val="VT0(1):26"/>
		</v:userDefs>
	</v:documentProperties>

	<style type="text/css">
	<![CDATA[
		.st1 {visibility:visible}
		.st2 {fill:#5b9bd5;fill-opacity:0.22;filter:url(#filter_2);stroke:#5b9bd5;stroke-opacity:0.22}
		.st3 {fill:#ededed;stroke:#c7c8c8;stroke-width:6}
		.st4 {fill:#00fefe;stroke:#000000;stroke-width:6}
		.st5 {stroke:#000000;stroke-linecap:round;stroke-linejoin:round;stroke-width:6}
		.st6 {fill:none;filter:url(#filter_2);stroke:#5b9bd5;stroke-opacity:0.22}
		.st7 {fill:none;stroke:#ed7d31;stroke-width:6}
		.st8 {fill:#fff2cc;stroke:#000000;stroke-width:6}
		.st9 {fill:#ededed;stroke:#000000;stroke-width:6}
		.st10 {fill:none;fill-rule:evenodd;font-size:12px;overflow:visible;stroke-linecap:square;stroke-miterlimit:3}
	]]>
	</style>

	<defs id="Filters">
		<filter id="filter_2">
			<feGaussianBlur stdDeviation="2"/>
		</filter>
	</defs>
	<g v:mID="0" v:index="1" v:groupContext="foregroundPage">
		<v:userDefs>
			<v:ud v:nameU="msvThemeOrder" v:val="VT0(0):26"/>
			<v:ud v:nameU="LPrec" v:val="VT0(2):26"/>
			<v:ud v:nameU="LUnits" v:val="VT0(0):26"/>
			<v:ud v:nameU="ShowUnits" v:val="VT0(0):26"/>
		</v:userDefs>
		<title>页-1</title>
		<v:pageProperties v:drawingScale="0.0393701" v:pageScale="0.0393701" v:drawingUnits="24" v:shadowOffsetX="8.50394"
				v:shadowOffsetY="-8.50394"/>
		<v:layer v:name="尺寸" v:index="0"/>
		<g id="shape4-1" v:mID="4" v:groupContext="shape" transform="translate(247.864,-297.123)">
			<title>圆形</title>
			<v:userDefs>
				<v:ud v:nameU="visVersion" v:val="VT0(15):26"/>
			</v:userDefs>
			<g id="shadow4-2" v:groupContext="shadow" v:shadowOffsetX="0.345598" v:shadowOffsetY="-1.97279" v:shadowType="1"
					transform="matrix(1,0,0,1,0.345598,1.97279)" class="st1">
				<path d="M0 2111.12 A183.889 183.889 0 0 1 367.78 2111.12 A183.889 183.889 0 1 1 0 2111.12 Z" class="st2"/>
			</g>
			<path d="M0 2111.12 A183.889 183.889 0 0 1 367.78 2111.12 A183.889 183.889 0 1 1 0 2111.12 Z" class="st3"/>
		</g>
		<g id="shape112-6" v:mID="112" v:groupContext="shape" transform="translate(1207.28,-57.3879)">
			<title>矩形</title>
			<v:userDefs>
				<v:ud v:nameU="visVersion" v:val="VT0(15):26"/>
			</v:userDefs>
			<g id="shadow112-7" v:groupContext="shadow" v:shadowOffsetX="0.345598" v:shadowOffsetY="-1.97279" v:shadowType="1"
					transform="matrix(1,0,0,1,0.345598,1.97279)" class="st1">
				<rect x="0" y="2263.75" width="367.777" height="31.2637" class="st2"/>
			</g>
			<rect x="0" y="2263.75" width="367.777" height="31.2637" class="st4"/>
		</g>
		<g id="shape130-11" v:mID="130" v:groupContext="shape" transform="translate(24,-1026.56)">
			<title>工作表.130</title>
			<path d="M0 2295.01 L1205.67 2295.01" class="st5"/>
		</g>
		<g id="shape132-14" v:mID="132" v:groupContext="shape" transform="translate(-1065.34,1268.45) rotate(-90)">
			<title>工作表.132</title>
			<path d="M0 2295.01 L1244.3 2295.01" class="st5"/>
		</g>
		<g id="shape133-17" v:mID="133" v:groupContext="shape" transform="translate(24,-25.9728)">
			<title>正方形</title>
			<v:userDefs>
				<v:ud v:nameU="visVersion" v:val="VT0(15):26"/>
			</v:userDefs>
			<g id="shadow133-18" v:groupContext="shadow" v:shadowOffsetX="0.345598" v:shadowOffsetY="-1.97279" v:shadowType="1"
					transform="matrix(1,0,0,1,0.345598,1.97279)" class="st1">
				<rect x="0" y="49.9728" width="2245.04" height="2245.04" class="st6"/>
			</g>
			<rect x="0" y="49.9728" width="2245.04" height="2245.04" class="st7"/>
		</g>
		<g id="shape141-22" v:mID="141" v:groupContext="shape" transform="translate(3673.93,2966.02) rotate(136.62)">
			<title>工作表.141</title>
			<path d="M0 2241.01 A188.922 182.189 -145.5 0 0 264.01 2241.01" class="st5"/>
		</g>
		<g id="shape142-25" v:mID="142" v:groupContext="shape" transform="translate(180.6,3199.85) rotate(-138.751)">
			<title>工作表.142</title>
			<path d="M-0 2236.21 A214.171 191.722 -38.61 0 0 289.24 2236.21" class="st5"/>
		</g>
		<g id="shape144-28" v:mID="144" v:groupContext="shape" transform="translate(3154.02,2121.52) rotate(139.22)">
			<title>工作表.144</title>
			<path d="M-0 2295.01 A214.207 188.582 38.53 0 1 287.19 2295.01" class="st5"/>
		</g>
		<g id="shape145-31" v:mID="145" v:groupContext="shape" transform="translate(3410.01,-1288.8) rotate(41.6279)">
			<title>工作表.145</title>
			<path d="M-0 2237.52 A207.846 188.574 -38.58 0 0 282.38 2237.52" class="st5"/>
		</g>
		<g id="shape162-34" v:mID="162" v:groupContext="shape" transform="translate(194.058,2737.06) rotate(-139.22)">
			<title>工作表.162</title>
			<path d="M-0 2236.75 A214.207 188.582 -38.53 0 0 287.19 2236.75" class="st5"/>
		</g>
		<g id="shape165-37" v:mID="165" v:groupContext="shape" transform="translate(352.357,-614.302) rotate(-43.8693)">
			<title>工作表.165</title>
			<path d="M-0 2295.01 A189.038 185.181 27.3 0 1 266.16 2295.01" class="st5"/>
		</g>
		<g id="shape166-40" v:mID="166" v:groupContext="shape" transform="translate(1655.01,3338.36) rotate(180)">
			<title>工作表.166</title>
			<path d="M0 2295.01 L217.47 2295.01" class="st5"/>
		</g>
		<g id="shape167-43" v:mID="167" v:groupContext="shape" transform="translate(1942.84,-1254.79)">
			<title>工作表.167</title>
			<path d="M0 2295.01 L191.88 2295.01" class="st5"/>
		</g>
		<g id="shape168-46" v:mID="168" v:groupContext="shape" transform="translate(30.3961,-784.399)">
			<title>正方形.168</title>
			<v:userDefs>
				<v:ud v:nameU="visVersion" v:val="VT0(15):26"/>
			</v:userDefs>
			<g id="shadow168-47" v:groupContext="shadow" v:shadowOffsetX="0.345598" v:shadowOffsetY="-1.97279" v:shadowType="1"
					transform="matrix(1,0,0,1,0.345598,1.97279)" class="st1">
				<rect x="0" y="2167.09" width="127.922" height="127.922" class="st2"/>
			</g>
			<rect x="0" y="2167.09" width="127.922" height="127.922" class="st8"/>
		</g>
		<g id="shape169-51" v:mID="169" v:groupContext="shape" transform="translate(895.472,-1029.71)">
			<title>矩形.169</title>
			<v:userDefs>
				<v:ud v:nameU="visVersion" v:val="VT0(15):26"/>
			</v:userDefs>
			<g id="shadow169-52" v:groupContext="shadow" v:shadowOffsetX="0.345598" v:shadowOffsetY="-1.97279" v:shadowType="1"
					transform="matrix(1,0,0,1,0.345598,1.97279)" class="st1">
				<rect x="0" y="2282.52" width="238.306" height="12.489" class="st2"/>
			</g>
			<rect x="0" y="2282.52" width="238.306" height="12.489" class="st4"/>
		</g>
		<g id="shape175-56" v:mID="175" v:groupContext="shape" transform="translate(2134.72,-301.245)">
			<title>矩形.175</title>
			<v:userDefs>
				<v:ud v:nameU="visVersion" v:val="VT0(15):26"/>
			</v:userDefs>
			<g id="shadow175-57" v:groupContext="shadow" v:shadowOffsetX="0.345598" v:shadowOffsetY="-1.97279" v:shadowType="1"
					transform="matrix(1,0,0,1,0.345598,1.97279)" class="st1">
				<rect x="0" y="2044.9" width="127.922" height="250.11" class="st2"/>
			</g>
			<rect x="0" y="2044.9" width="127.922" height="250.11" class="st8"/>
		</g>
		<g id="shape181-61" v:mID="181" v:groupContext="shape" transform="translate(1923.65,-54.2615)">
			<title>矩形.181</title>
			<v:userDefs>
				<v:ud v:nameU="visVersion" v:val="VT0(15):26"/>
			</v:userDefs>
			<g id="shadow181-62" v:groupContext="shadow" v:shadowOffsetX="0.345598" v:shadowOffsetY="-1.97279" v:shadowType="1"
					transform="matrix(1,0,0,1,0.345598,1.97279)" class="st1">
				<rect x="0" y="2169.96" width="287.826" height="125.055" class="st2"/>
			</g>
			<rect x="0" y="2169.96" width="287.826" height="125.055" class="st9"/>
		</g>
		<g id="shape187-66" v:mID="187" v:groupContext="shape" transform="translate(975.378,-96.597)">
			<title>正方形.187</title>
			<v:userDefs>
				<v:ud v:nameU="visVersion" v:val="VT0(15):26"/>
			</v:userDefs>
			<g id="shadow187-67" v:groupContext="shadow" v:shadowOffsetX="0.345598" v:shadowOffsetY="-1.97279" v:shadowType="1"
					transform="matrix(1,0,0,1,0.345598,1.97279)" class="st1">
				<rect x="0" y="2167.09" width="127.922" height="127.922" class="st2"/>
			</g>
			<rect x="0" y="2167.09" width="127.922" height="127.922" class="st8"/>
		</g>
		<g id="shape193-71" v:mID="193" v:groupContext="shape" transform="translate(-854.74,846.227) rotate(-89.7615)">
			<title>工作表.193</title>
			<path d="M0 2295.01 L284.55 2295.01" class="st5"/>
		</g>
		<g id="shape194-74" v:mID="194" v:groupContext="shape" transform="translate(3735.72,1055.12) rotate(90.2938)">
			<title>工作表.194</title>
			<path d="M0 2295.01 L284.51 2295.01" class="st5"/>
		</g>
		<g id="shape195-77" v:mID="195" v:groupContext="shape" transform="translate(1655.01,-776.454)">
			<title>工作表.195</title>
			<path d="M0 2295.01 L287.83 2295.01" class="st5"/>
		</g>
		<g id="shape196-80" v:mID="196" v:groupContext="shape" transform="translate(-160.291,1337.23) rotate(-90)">
			<title>工作表.196</title>
			<path d="M0 2295.01 L297.01 2295.01" class="st5"/>
		</g>
		<g id="shape197-83" v:mID="197" v:groupContext="shape" transform="translate(-160.291,855.767) rotate(-90)">
			<title>工作表.197</title>
			<path d="M0 2295.01 L284.5 2295.01" class="st5"/>
		</g>
		<g id="shape198-86" v:mID="198" v:groupContext="shape" transform="translate(1640.94,-1909.26) rotate(-0.35104)">
			<title>工作表.198</title>
			<path d="M0 2295.01 L268.66 2295.01" class="st5"/>
		</g>
	</g>
</svg>
